<?xml version="1.0" encoding="UTF-8"?>
<svg id="Layer_2" data-name="Layer 2" xmlns="http://www.w3.org/2000/svg" viewBox="0 0 959.87 172.35">
  <defs>
    <style>
      .cls-1 {
        fill: #b4c02d;
      }
    </style>
  </defs>
  <g id="Layer_1-2" data-name="Layer 1">
    <path class="cls-1" d="m63,5.41c.8.15,1.47.71,1.77,1.46,7.1,17.97,12.25,36.57,18.96,54.68,7.35,19.84,18.32,38.15,24.35,58.52.9,3.03-11.17,15.35-12.93,13.39-12.1-13.46-25.11-24.39-41.2-32.36-4.93-2.44-9.83-4.96-14.96-6.96-2.35-.92-4.82-1.89-7.29-2.43-.66-.15-1.27-.23-1.85-.29-2.79,7.8-5.46,15.65-7.92,23.58-1.44,4.63-5.64,8.66-9.05,11.78-.28.26-13.72,6.72-12.84,3.89,5.95-19.2,12.33-38.55,20.7-56.77,4.46-9.7,9.44-19.13,13.42-29.06,3.64-9.09,9.21-19.81,10.49-29.45.47-3.56,12.93-8.41,15.42-9.93.51-.31,1.11-.42,1.69-.31l1.24.24Zm7.59,80.22c-1.06-2.42-2.08-4.85-3.06-7.31-6.15-15.5-9.44-31.89-14.1-47.86-3.2,7.85-6.77,15.59-9.5,22.94-2.67,7.2-5.37,14.37-8.05,21.55,1.59-.75,3.28-1.25,5.07-1.37,6.44-.43,13.53,2.98,19.15,5.76,3.73,1.85,7.2,3.97,10.49,6.28Z"/>
    <path class="cls-1" d="m158.59,41.16c-8.16.97-16.32,1.32-24.49,1.45,1.31,14.63,1.73,29.31,1.82,44,.05,7.84.61,24.17-1.01,31.52-1.38,6.23-7.77,11.89-13.68,13.68-1.11.33-2.28.23-3.43.18-1.12-.22-1.79-.89-2.01-2.01-1.58-24.18.02-56.31-2.88-80.5-.24-2-.2-4.36-.4-6.8-9.37.33-22.65,3.36-28.66-3.93-3.82-4.63,7.8-13.78,11.61-14.43,24.92-4.24,50.59-.36,75.66-3.32,9.96-1.18-5.49,19.34-12.53,20.16Z"/>
    <path class="cls-1" d="m165.98,140.11c-4.62.62-9.95,5.58-9.38-.41,3.14-33.09-2.08-67.51-2.24-100.73-.03-5.52,4.64-10.63,8.79-13.83,1.28-.99,11.98-7.16,12.01-1.89.1,20.17.29,40.29.91,60.45.37,12.12,2.23,25.64.44,38.01,7.98-2.17,16.78-.98,25.78,1.35,19.61,5.09,40.06,12.86,60.11,5.33,5.03-1.89,6.44.53,5.11,5.05-1.61,5.45-7.84,10.28-12.76,12.63-15.65,7.47-33.16,5.64-49.55,1.67-6.74-1.63-13.21-4.31-20.03-5.53-4.75-.85-13.31-2.89-19.19-2.1Zm17.62-31.86c.24-.75.5-1.49.74-2.24,0,0-.01,0-.02,0,.02-.03.04-.07.06-.11,3.94-12.12,8.5-24.02,13.01-35.94,2.02-6.27,4.16-12.49,6.75-18.39,1.64-4.67,3.24-9.36,4.71-14.1,1.8-5.79,6.5-11.56,11.98-14.46,2.13-1.13,7.32-1.85,10.68,0,5.36,3.54,7.01,7.17,9.65,15.52,6.54,20.7,13.82,41.77,18.74,62.85,1.6,6.85-17.11,24.27-20.76,16.28-6.56-14.36-20.19-20.71-34.59-22.79-.38,1.05-.78,2.1-1.16,3.15-1.8,4.95-7.45,10.54-12.34,12.66-2.32,1.01-9.13,2.87-7.45-2.44Zm27.52-32.5c5.73-.28,11.46.2,17,1.46-1.11-3.9-2.16-7.82-3.06-11.78-1.26-5.49-2.44-11.07-4.03-16.5-3.23,8.97-6.56,17.9-9.91,26.82Z"/>
    <path class="cls-1" d="m309.08,98.34c-1.71-3.62-4.96-5.83-8.51-7.65-9.36-4.81-21.25-1.55-29.23-10.12-4.2-4.51-5.24-10.43-4.23-16.37,4.23-24.81,47.7-61.89,61.95-25.55,2.7,6.88-17.04,23.68-20.08,16.1-4.16-10.38-17.98-17.27-23.93-4.54-2.72,5.82-1.94,12.78,3.07,17.04,9.28,7.9,22.85,1.83,32.66,9.73,17.64,14.2,5.12,38.9-12.45,46.36-12.62,5.36-37.99,2.04-42.76-13.03-1.64-5.19,9.7-15.54,14.56-13.06,8.54,4.35,15.18,9.9,25.15,11.07,2.08.11,4.24-1.28,4.87-3.36s-.1-4.54-1.07-6.59Z"/>
    <path class="cls-1" d="m351.32,33.66c-1.51,3.76-4.84,7.1-8.08,9.41-1.46,1.03-5.89,4.04-7.85,1.99-2.58-2.7-2.12-6.6-2.13-10.08-.02-3.97,0-7.94,0-11.9,0-5.81,4.79-10.8,9-14.29,1.29-1.07,11.27-7.36,11.27-1.96,0,8.85,1.13,18.47-2.21,26.82Z"/>
    <path class="cls-1" d="m500.3,83.41c-4.86,53.29-86.51,90.94-108.68,30.8-8.93-24.24-7.38-55.74,5.81-77.6C409,17.43,426.14-.52,447.04.08c5.16-.41,9.7.75,12.08,1.4,30.59,8.35,43.95,51.53,41.18,81.92Zm-20.15,2.17c-2.38-21.9-9.36-48.79-28.62-59.6-6.64-3.61-27.98-6.05-36.6,6.42-6.13,8.86-8.12,22.25-8.46,33-.65,20.31,5.33,44.12,22,56.12,10.74,7.72,20.73,5.63,32.17-.02,14.38-7.1,21.24-19.96,19.5-35.92Z"/>
    <g>
      <path class="cls-1" d="m644.93,38.24c-3.95,4.75,8.09,36.4-8.28,59.83-8.96,12.83-23.16,13.8-21.8-.7,1.73-18.52,3.74-32.47-1.31-58.64-1.58-8.19-22.93,4.72-20.8,10.19,11.71,29.93-10.57,66.29,12.91,74.67,11.09,3.96,27.01-5.99,34.66-14.77-.39,2.65-.26,11.86-.07,14.54.74,10.31,2.57,13.25,3.17,20.33-12.38-10.84-39.39-14.35-55.49-13.09-11.7.92-21.63,4.42-32.24,9.22-12.78,5.78-31.74,16.65-44.01,4.82-3.85-3.72-17.13,12.68-13.44,16.74,17.46,19.22,47-4.12,65.72-9.3,19.76-5.47,66.38-6.13,73.73,18.48,1.97,6.6,16.57-6.92,17.58-8.89,8.15-15.89-3.31-34.9-.87-52.18,2.98-21.06,12.59-40.42,6.56-63.21-1.45-5.5-13.87-10.65-16.05-8.02Z"/>
      <path class="cls-1" d="m504.34,128.5c49.83,19.34,107.27-26.64,79.31-77.34-11.66-21.15-42.28-28.37-59.5-9.86.09-.11.3-.64-1.22-2.98-2.22-3.42-14.97,4.94-15.32,9.32-1.82,22.84-5.41,70.62-3.27,80.86Zm57.86-20.21c-12.14,13.87-39.55,9.47-40.9,8.02-5.2-5.57-.17-35.66,4.27-62.07,2.78-16.51,31.65-7.43,39.82,6.54,8.5,14.54,7.73,35.03-3.19,47.51Z"/>
    </g>
    <path class="cls-1" d="m714.12,130.85c.44-1.22,2.59-5.51-.06-11.3-2.45-3.65-4.08-9.26-13.74-11.7-15.84-4.14-23.72,1.01-28.81-3.43-4.62-4.96-5.76-11.45-4.65-17.98,4.65-27.24,52.39-67.98,68.03-28.06,2.96,7.56-18.72,26.01-22.06,17.68-4.57-11.4-19.75-18.96-26.28-4.99-2.99,6.39-2.13,14.03,3.37,18.71,10.19,8.67,25.09,2.01,35.87,10.69,19.37,15.59,5.62,42.72-13.67,50.91-13.86,5.89-41.72,2.24-46.96-14.31-1.8-5.7,10.65-17.06,15.99-14.35,9.38,4.78,16.79,14.21,27.63,12.16,2.1-.4,4.6-2.02,5.33-4.03Z"/>
    <path class="cls-1" d="m904.22,85.31c6.62,15.28,30.3-5.8,31.94-16.55.78-5.22,2.44-23.63,4.24-27.78,1.69-3.98,18.3-6.85,19.43.43.24,2.71-.93,9.04-1.7,11.31-4.09,14.81-10.93,38.21-11.03,52.86-.29,40.83,5.72,42.02,5.83,49.03.08,4.98-11.83,16.58-17.79,13.15-28.18-16.26-67.01-5.24-97.46-1.46-34.51,4.29-68.46,6.93-102.3-2.46-8.04-2.23,9.56-22.21,17.38-19.92,36.76,10.79,74.95,6.5,112.43,1.18,22.03-3.13,48.62-7.18,69.65-1.13-1.69-3.86-3.91-10.89-4.38-24.07-.29-8.02-.24-17.51,3.73-32.59-8.36,9.02-21.47,19.25-34.3,17.66-25.61-3.17-11.57-37.28-15.87-62.64,2.32-3.56,17.04-14.11,20.66-9.89,8.61,10.03-5.71,40.74-.46,52.87Zm-111.45,29.9c9.17-6.34,1.15-17.8-4.87-21.24-16.62-8.74-43.09.02-45.84-20.77-3.33-25.22,42.46-54.05,65.07-30.32,4.94,5.19-12.77,22.31-17.35,17.35-19.68-21.35-33.46,12.7-14.93,17.94,13.7,3.87,39.56,4.5,38.59,25-.72,15.11-18.05,27.09-31.57,29.6-16.9,3.13-32.87-6.89-41.77-20.8-2.89-4.51,7.8-15.31,12.31-13.72,10.32,3.64,27.11,26.12,40.36,16.96Zm68.95-47.59c5.44-5.04,7.58,3.83,2.51,8.83-4.65,4.14-7.2,5.05-16.94,5.43-6.41.25-7.74,4.33-7.74,4.33-.52,7.18-1.23,14.33-2.37,21.43,6.28-3.94,13.24-6.6,20.36-6.78,7.61-.19,11.87,3.43,17.63,7.71,11.14,8.25,20.9,7.31,34.04,3.32,8.6-2.62-4.6,13.95-6.53,15.23-10.69,7.11-24.14,12.54-36.8,7.02-9.55-4.16-23.33-23.41-34.39-8.85-1.46,1.92-16.86,14.06-15.03,4.74,2.7-13.77,3.68-27.38,4.59-41.33.58-8.99,3.57-25.55-3.95-32.47-5.76-5.3,10.8-17.57,14.9-18.52,12.72-2.96,32.2-6.12,44.88-9.25,6.57-1.62,3.37,6.55,1.92,9.23-2.98,5.5-9.25,11.02-15.4,12.48-5.48,1.29-17.56,3.52-23.07,4.45.5,5.12.33,10.38.12,15.5,0,.18-.16,1.76-.03,1.64,8.01-6.94,16.93-.06,21.3-4.11Z"/>
  </g>
</svg>