<?xml version="1.0" encoding="UTF-8"?>
<svg id="Layer_2" data-name="Layer 2" xmlns="http://www.w3.org/2000/svg" viewBox="0 0 120.14 102.47">
  <defs>
    <style>
      .cls-1 {
        fill: #120308;
      }
    </style>
  </defs>
  <g id="Layer_1-2" data-name="Layer 1">
    <path class="cls-1" d="m95.52,86.74c-.34-8.31-8.34-16.07-21.62-20.99l1.9-1.87,6.86,2.98c8.11,4.09,20.57,1.1,25.94-6.22l11.55-13.99-16.48-8.34c-10.08-5.35-21.61-2.41-29.57,7.55l-4.3-.47,2.6-3.66c4.6-2.56,7.8-6.58,8.28-11.01.48-4.43-1.77-9.26-5.68-13.08-6.21-3.33-11.94-10.11-14.92-17.66-3.01,7.51-8.26,14.02-14.92,17.66-9.01,8.35-7.11,19.13,2.6,24.09l2.6,3.66-4.3.47c-7.96-9.96-19.49-12.91-29.57-7.55L0,46.64l11.55,13.99c5.37,7.33,17.83,10.32,25.94,6.22l6.86-2.98,2.08,2.07c-13.05,4.83-20.83,12.25-21.27,20.28l-4.76,16.25,19.2-1.48c4.68-.27,11.8-4.46,17.78-10.92-3.49-9.37-2.2-16.66,2.55-19.17,4.75,2.52,6.05,9.75,2.55,19.17,6,6.49,13.15,10.66,17.84,10.93l19.41,1.47-4.22-15.74Z"/>
  </g>
</svg>