<?xml version="1.0" encoding="UTF-8"?>
<svg id="Layer_2" data-name="Layer 2" xmlns="http://www.w3.org/2000/svg" viewBox="0 0 552.73 471.46">
  <defs>
    <style>
      .cls-1 {
        fill: #b4c02d;
      }
    </style>
  </defs>
  <g id="Layer_1-2" data-name="Layer 1">
    <path class="cls-1" d="m439.44,399.05c-1.58-38.23-38.39-73.96-99.48-96.56l8.73-8.62,31.57,13.71c37.3,18.83,94.64,5.07,119.34-28.63l53.13-64.36-75.82-38.36c-46.39-24.63-99.42-11.08-136.05,34.76l-19.79-2.14,11.97-16.82c21.16-11.76,35.9-30.26,38.1-50.63,2.2-20.37-8.14-42.6-26.13-60.18-28.57-15.34-54.91-46.52-68.64-81.23-13.85,34.55-38,64.49-68.64,81.23-41.45,38.41-32.73,88.01,11.96,110.81l11.97,16.82-19.79,2.14c-36.63-45.84-89.66-59.39-136.05-34.76L0,214.59l53.13,64.36c24.69,33.71,82.04,47.47,119.34,28.63l31.57-13.71,9.58,9.53c-60.03,22.23-95.83,56.35-97.87,93.3l-21.89,74.75,88.35-6.79c21.52-1.25,54.28-20.51,81.81-50.24-16.04-43.1-10.13-76.63,11.75-88.18,21.85,11.57,27.85,44.87,11.74,88.19,27.62,29.86,60.49,49.06,82.06,50.27l89.3,6.75-19.43-72.4Zm-112.76-147.62l-17.1,13.97c-2.48,1.87-3.76,5.78-2.84,8.75l5.63,21.36c.97,3.1-.51,7.26-3.22,9.04-2.54,2.03-6.95,2.16-9.6.27l-18.57-11.95c-2.54-1.79-6.66-1.79-9.2,0l-18.57,11.95c-2.65,1.89-7.06,1.76-9.6-.27-2.72-1.79-4.2-5.94-3.22-9.04l5.63-21.36c.91-2.97-.36-6.88-2.84-8.75l-17.1-13.97c-2.61-1.94-3.86-6.17-2.71-9.21.86-3.14,4.35-5.83,7.61-5.86l22.05-1.25c3.11-.05,6.44-2.47,7.44-5.41l8-20.58c1.03-3.08,4.68-5.57,7.92-5.42,3.25-.15,6.89,2.34,7.92,5.42l8,20.58c1.01,2.94,4.34,5.36,7.44,5.41l22.05,1.25c3.25.03,6.75,2.73,7.61,5.86,1.15,3.04-.1,7.28-2.71,9.21Z"/>
  </g>
</svg>