<?xml version="1.0" encoding="UTF-8"?>
<svg id="Layer_2" data-name="Layer 2" xmlns="http://www.w3.org/2000/svg" viewBox="0 0 106.91 102.47">
  <defs>
    <style>
      .cls-1 {
        fill: #b4c02d;
      }
    </style>
  </defs>
  <g id="Layer_1-2" data-name="Layer 1">
    <path class="cls-1" d="m98.87,32.67l-22.05-1.25c-3.11-.05-6.44-2.47-7.44-5.41l-8-20.58C60.34,2.35,56.7-.15,53.45,0c-3.25-.15-6.89,2.34-7.92,5.42l-8,20.58c-1.01,2.94-4.34,5.36-7.44,5.41l-22.05,1.25c-3.25.03-6.75,2.73-7.61,5.86-1.15,3.04.1,7.28,2.71,9.21l17.1,13.97c2.48,1.87,3.76,5.78,2.84,8.75l-5.63,21.36c-.97,3.1.51,7.26,3.22,9.04,2.54,2.03,6.95,2.16,9.6.27l18.57-11.95c2.54-1.79,6.66-1.79,9.2,0l18.57,11.95c2.65,1.89,7.06,1.76,9.6-.27,2.72-1.79,4.2-5.94,3.22-9.04l-5.63-21.36c-.91-2.97.36-6.88,2.84-8.75l17.1-13.97c2.61-1.94,3.86-6.17,2.71-9.21-.86-3.14-4.35-5.83-7.61-5.86Z"/>
  </g>
</svg>